<svg xmlns="http://www.w3.org/2000/svg" viewBox="0 0 512 512" width="512" height="512" shape-rendering="geometricPrecision">
  <!-- Rounded square background -->
  <rect width="512" height="512" rx="108" fill="#fff"/>
  <rect width="512" height="512" rx="108" fill="none" stroke="#e0e0e0" stroke-width="1.5"/>

  <!-- Subtle sphere silhouette -->
  <circle cx="256" cy="256" r="192" fill="none" stroke="#d0d0d0" stroke-width="0.6" stroke-dasharray="3 4"/>

  <!-- Edges (back, faint) -->
  <g>
    <path d="M247.0,441.1 Q212.6,409.7 166.8,418.3" fill="none" stroke="#1a1a1a" stroke-width="0.8" stroke-opacity="0.12" stroke-linecap="round"/>
    <path d="M247.0,441.1 Q262.9,409.4 297.8,403.1" fill="none" stroke="#1a1a1a" stroke-width="0.8" stroke-opacity="0.16" stroke-linecap="round"/>
    <path d="M247.0,441.1 Q228.5,393.8 179.5,380.3" fill="none" stroke="#1a1a1a" stroke-width="0.8" stroke-opacity="0.17" stroke-linecap="round"/>
    <path d="M247.0,441.1 Q227.2,389.3 256.8,342.3" fill="none" stroke="#1a1a1a" stroke-width="0.8" stroke-opacity="0.19" stroke-linecap="round"/>
    <path d="M166.8,418.3 Q165.3,355.8 114.4,319.5" fill="none" stroke="#1a1a1a" stroke-width="0.8" stroke-opacity="0.16" stroke-linecap="round"/>
    <path d="M166.8,418.3 Q192.8,357.8 256.8,342.3" fill="none" stroke="#1a1a1a" stroke-width="0.8" stroke-opacity="0.19" stroke-linecap="round"/>
    <path d="M75.0,258.7 Q119.3,219.1 114.2,159.9" fill="none" stroke="#1a1a1a" stroke-width="0.8" stroke-opacity="0.15" stroke-linecap="round"/>
    <path d="M75.0,258.7 Q109.9,279.3 114.4,319.5" fill="none" stroke="#1a1a1a" stroke-width="0.8" stroke-opacity="0.17" stroke-linecap="round"/>
    <path d="M75.0,258.7 Q115.2,255.1 136.4,220.7" fill="none" stroke="#1a1a1a" stroke-width="0.8" stroke-opacity="0.19" stroke-linecap="round"/>
    <path d="M75.0,258.7 Q139.3,240.8 192.3,281.5" fill="none" stroke="#1a1a1a" stroke-width="0.8" stroke-opacity="0.20" stroke-linecap="round"/>
    <path d="M355.2,106.7 Q314.8,72.3 263.0,83.9" fill="none" stroke="#1a1a1a" stroke-width="0.8" stroke-opacity="0.16" stroke-linecap="round"/>
    <path d="M355.2,106.7 Q395.2,148.5 385.8,205.5" fill="none" stroke="#1a1a1a" stroke-width="0.8" stroke-opacity="0.18" stroke-linecap="round"/>
    <path d="M355.2,106.7 Q328.7,117.3 321.3,144.7" fill="none" stroke="#1a1a1a" stroke-width="0.8" stroke-opacity="0.19" stroke-linecap="round"/>
    <path d="M428.2,266.3 Q428.8,327.8 379.9,365.1" fill="none" stroke="#1a1a1a" stroke-width="0.8" stroke-opacity="0.17" stroke-linecap="round"/>
    <path d="M428.2,266.3 Q422.2,225.3 385.8,205.5" fill="none" stroke="#1a1a1a" stroke-width="0.8" stroke-opacity="0.19" stroke-linecap="round"/>
  </g>

  <!-- Fibonacci sphere nodes (depth-sorted, back to front) -->
  <g>
    <!-- Back hemisphere (faint) -->
    <circle cx="442.3" cy="228.3" r="3.6" fill="#1a1a1a" fill-opacity="0.16"/>
    <circle cx="75.2" cy="197.9" r="4.3" fill="#1a1a1a" fill-opacity="0.23"/>
    <circle cx="288.1" cy="68.7" r="4.5" fill="#1a1a1a" fill-opacity="0.26"/>
    <circle cx="431.6" cy="327.1" r="5.1" fill="#1a1a1a" fill-opacity="0.31"/>
    <circle cx="96.1" cy="357.5" r="5.1" fill="#1a1a1a" fill-opacity="0.31"/>
    <circle cx="150.4" cy="99.1" r="5.2" fill="#1a1a1a" fill-opacity="0.33"/>
    <circle cx="337.2" cy="425.9" r="5.5" fill="#1a1a1a" fill-opacity="0.35"/>

    <!-- Mid hemisphere -->
    <circle cx="420.2" cy="167.5" r="5.9" fill="#1a1a1a" fill-opacity="0.39"/>
    <circle cx="247.0" cy="441.1" r="6.1" fill="#1a1a1a" fill-opacity="0.42"/>
    <circle cx="166.8" cy="418.3" r="6.1" fill="#1a1a1a" fill-opacity="0.42"/>
    <circle cx="75.0" cy="258.7" r="6.7" fill="#1a1a1a" fill-opacity="0.48"/>
    <circle cx="355.2" cy="106.7" r="6.9" fill="#1a1a1a" fill-opacity="0.50"/>
    <circle cx="428.2" cy="266.3" r="7.5" fill="#1a1a1a" fill-opacity="0.56"/>
    <circle cx="263.0" cy="83.9" r="7.5" fill="#1a1a1a" fill-opacity="0.56"/>
    <circle cx="114.2" cy="159.9" r="7.6" fill="#1a1a1a" fill-opacity="0.57"/>

    <!-- Front hemisphere (prominent) -->
    <circle cx="379.9" cy="365.1" r="8.0" fill="#1a1a1a" fill-opacity="0.61"/>
    <circle cx="114.4" cy="319.5" r="8.6" fill="#1a1a1a" fill-opacity="0.67"/>
    <circle cx="297.8" cy="403.1" r="8.7" fill="#1a1a1a" fill-opacity="0.69"/>
    <circle cx="193.9" cy="121.9" r="9.0" fill="#1a1a1a" fill-opacity="0.71"/>
    <circle cx="179.5" cy="380.3" r="9.0" fill="#1a1a1a" fill-opacity="0.72"/>
    <circle cx="385.8" cy="205.5" r="9.3" fill="#1a1a1a" fill-opacity="0.75"/>
    <circle cx="321.3" cy="144.7" r="9.7" fill="#1a1a1a" fill-opacity="0.79"/>
    <circle cx="136.4" cy="220.7" r="9.8" fill="#1a1a1a" fill-opacity="0.80"/>
    <circle cx="355.4" cy="304.3" r="10.2" fill="#1a1a1a" fill-opacity="0.84"/>
    <circle cx="256.8" cy="342.3" r="10.8" fill="#1a1a1a" fill-opacity="0.90"/>
    <circle cx="233.5" cy="182.7" r="11.0" fill="#1a1a1a" fill-opacity="0.92"/>
    <circle cx="192.3" cy="281.5" r="11.1" fill="#1a1a1a" fill-opacity="0.93"/>
    <circle cx="297.6" cy="243.5" r="11.4" fill="#1a1a1a" fill-opacity="0.96"/>
  </g>
</svg>
